<svg width="32" height="33" viewBox="0 0 32 33" fill="none" xmlns="http://www.w3.org/2000/svg">
<path d="M27.2071 5.30418C24.2143 2.29386 20.2286 0.638184 15.9929 0.638184C7.25 0.638184 0.135714 7.77694 0.135714 16.5499C0.135714 19.3523 0.864286 22.0903 2.25 24.5057L0 32.7483L8.40714 30.5335C10.7214 31.8022 13.3286 32.4687 15.9857 32.4687H15.9929C24.7286 32.4687 32 25.33 32 16.557C32 12.3068 30.2 8.3145 27.2071 5.30418ZM15.9929 29.7881C13.6214 29.7881 11.3 29.1502 9.27857 27.9461L8.8 27.6594L3.81429 28.971L5.14286 24.09L4.82857 23.5883C3.50714 21.4811 2.81429 19.0513 2.81429 16.5499C2.81429 9.2606 8.72857 3.32597 16 3.32597C19.5214 3.32597 22.8286 4.70212 25.3143 7.20355C27.8 9.70498 29.3286 13.0235 29.3214 16.557C29.3214 23.8535 23.2571 29.7881 15.9929 29.7881ZM23.2214 19.8827C22.8286 19.682 20.8786 18.7216 20.5143 18.5926C20.15 18.4564 19.8857 18.3919 19.6214 18.7933C19.3571 19.1947 18.6 20.0834 18.3643 20.3558C18.1357 20.621 17.9 20.6568 17.5071 20.4561C15.1786 19.2878 13.65 18.3704 12.1143 15.7256C11.7071 15.0232 12.5214 15.0734 13.2786 13.5539C13.4071 13.2887 13.3429 13.0593 13.2429 12.8587C13.1429 12.658 12.35 10.7013 12.0214 9.90567C11.7 9.13159 11.3714 9.2391 11.1286 9.22477C10.9 9.21043 10.6357 9.21043 10.3714 9.21043C10.1071 9.21043 9.67857 9.31077 9.31429 9.70498C8.95 10.1064 7.92857 11.0668 7.92857 13.0235C7.92857 14.9802 9.35 16.8724 9.54286 17.1376C9.74286 17.4028 12.3357 21.4166 16.3143 23.1439C18.8286 24.2334 19.8143 24.3265 21.0714 24.1402C21.8357 24.0255 23.4143 23.1798 23.7429 22.248C24.0714 21.3162 24.0714 20.5206 23.9714 20.3558C23.8786 20.1766 23.6143 20.0763 23.2214 19.8827Z" fill="#0D0D0D"/>
</svg>
